HIERARCHY
ROOT Hips
{
	OFFSET 0.00000 0.00000 0.00000
	CHANNELS 6 Xposition Yposition Zposition Zrotation Yrotation Xrotation 
	JOINT LHipJoint
	{
		OFFSET 0 0 0
		CHANNELS 3 Zrotation Yrotation Xrotation
		JOINT LeftUpLeg
		{
			OFFSET 1.65674 -1.80282 0.62477
			CHANNELS 3 Zrotation Yrotation Xrotation
			JOINT LeftLeg
			{
				OFFSET 2.59720 -7.13576 0.00000
				CHANNELS 3 Zrotation Yrotation Xrotation
				JOINT LeftFoot
				{
					OFFSET 2.49236 -6.84770 0.00000
					CHANNELS 3 Zrotation Yrotation Xrotation
					JOINT LeftToeBase
					{
						OFFSET 0.19704 -0.54136 2.14581
						CHANNELS 3 Zrotation Yrotation Xrotation
						End Site
						{
							OFFSET 0.00000 -0.00000 1.11249
						}
					}
				}
			}
		}
	}
	JOINT RHipJoint
	{
		OFFSET 0 0 0
		CHANNELS 3 Zrotation Yrotation Xrotation
		JOINT RightUpLeg
		{
			OFFSET -1.61070 -1.80282 0.62476
			CHANNELS 3 Zrotation Yrotation Xrotation
			JOINT RightLeg
			{
				OFFSET -2.59502 -7.12977 0.00000
				CHANNELS 3 Zrotation Yrotation Xrotation
				JOINT RightFoot
				{
					OFFSET -2.46780 -6.78024 0.00000
					CHANNELS 3 Zrotation Yrotation Xrotation
					JOINT RightToeBase
					{
						OFFSET -0.23024 -0.63258 2.13368
						CHANNELS 3 Zrotation Yrotation Xrotation
						End Site
						{
							OFFSET -0.00000 -0.00000 1.11569
						}
					}
				}
			}
		}
	}
	JOINT LowerBack
	{
		OFFSET 0 0 0
		CHANNELS 3 Zrotation Yrotation Xrotation
		JOINT Spine
		{
			OFFSET 0.01961 2.05450 -0.14112
			CHANNELS 3 Zrotation Yrotation Xrotation
			JOINT Spine1
			{
				OFFSET 0.01021 2.06436 -0.05921
				CHANNELS 3 Zrotation Yrotation Xrotation
				JOINT Neck
				{
					OFFSET 0 0 0
					CHANNELS 3 Zrotation Yrotation Xrotation
					JOINT Neck1
					{
						OFFSET 0.00713 1.56711 0.14968
						CHANNELS 3 Zrotation Yrotation Xrotation
						JOINT Head
						{
							OFFSET 0.03429 1.56041 -0.10006
							CHANNELS 3 Zrotation Yrotation Xrotation
							End Site
							{
								OFFSET 0.01305 1.62560 -0.05265
							}
						}
					}
				}
				JOINT LeftShoulder
				{
					OFFSET 0 0 0
					CHANNELS 3 Zrotation Yrotation Xrotation
					JOINT LeftArm
					{
						OFFSET 3.54205 0.90436 -0.17364
						CHANNELS 3 Zrotation Yrotation Xrotation
						JOINT LeftForeArm
						{
							OFFSET 4.86513 -0.00000 -0.00000
							CHANNELS 3 Zrotation Yrotation Xrotation
							JOINT LeftHand
							{
								OFFSET 3.35554 -0.00000 0.00000
								CHANNELS 3 Zrotation Yrotation Xrotation
								JOINT LeftFingerBase
								{
									OFFSET 0 0 0
									CHANNELS 3 Zrotation Yrotation Xrotation
									JOINT LeftHandIndex1
									{
										OFFSET 0.66117 -0.00000 0.00000
										CHANNELS 3 Zrotation Yrotation Xrotation
										End Site
										{
											OFFSET 0.53306 -0.00000 0.00000
										}
									}
								}
								JOINT LThumb
								{
									OFFSET 0 0 0
									CHANNELS 3 Zrotation Yrotation Xrotation
									End Site
									{
										OFFSET 0.54120 -0.00000 0.54120
									}
								}
							}
						}
					}
				}
				JOINT RightShoulder
				{
					OFFSET 0 0 0
					CHANNELS 3 Zrotation Yrotation Xrotation
					JOINT RightArm
					{
						OFFSET -3.49802 0.75994 -0.32616
						CHANNELS 3 Zrotation Yrotation Xrotation
						JOINT RightForeArm
						{
							OFFSET -5.02649 -0.00000 0.00000
							CHANNELS 3 Zrotation Yrotation Xrotation
							JOINT RightHand
							{
								OFFSET -3.36431 -0.00000 0.00000
								CHANNELS 3 Zrotation Yrotation Xrotation
								JOINT RightFingerBase
								{
									OFFSET 0 0 0
									CHANNELS 3 Zrotation Yrotation Xrotation
									JOINT RightHandIndex1
									{
										OFFSET -0.73041 -0.00000 0.00000
										CHANNELS 3 Zrotation Yrotation Xrotation
										End Site
										{
											OFFSET -0.58887 -0.00000 0.00000
										}
									}
								}
								JOINT RThumb
								{
									OFFSET 0 0 0
									CHANNELS 3 Zrotation Yrotation Xrotation
									End Site
									{
										OFFSET -0.59786 -0.00000 0.59786
									}
								}
							}
						}
					}
				}
			}
		}
	}
}
MOTION
Frames: 16
Frame Time: 0.0333333
0.00 0.00 0.00 0.4888 22.0198 -6.1993 0.0000 0.0000 0.0000 -22.7716 -26.4581 -14.7356 3.8094 11.9024 35.3876 -0.2884 -10.4560 -0.8973 0.0584 -1.5599 -4.2909 0.0000 0.0000 0.0000 23.7114 -27.8766 3.4288 -1.3887 -7.4559 21.0733 -2.6812 -21.8710 -44.4630 -0.2710 -3.3486 9.2508 9.9819 8.7247 -0.3539 -4.2421 11.7280 5.3597 -8.8648 6.6476 8.9336 -4.6577 -10.1254 -13.0085 16.6317 -13.1700 -2.7454 4.8622 -5.9775 2.7887 -0.0000 0.0000 0.0000 23.1354 -75.9591 -51.1601 9.0544 -15.2471 -1.2144 -0.0000 0.0000 -10.2238 52.7343 30.4629 33.6769 -7.1250 0.0000 -0.0000 37.2039 71.0062 24.0924 -0.0000 0.0000 0.0000 156.2772 45.0008 137.9016 -24.5968 35.7890 -8.0529 0.0000 -0.0000 -69.4158 -35.4379 6.9346 -4.9110 7.1250 -0.0000 -0.0000 -6.2839 -21.5093 -3.5633
0.00 0.00 0.00 1.1772 20.1963 -6.7916 0.0000 0.0000 0.0000 -23.0877 -26.0746 -13.4865 3.5643 11.5569 34.1820 -0.2538 -9.7633 -0.7279 0.0098 -0.6377 -1.7525 0.0000 0.0000 0.0000 23.1981 -25.7311 3.8453 -1.5929 -7.9609 22.5955 -2.8091 -22.2405 -45.2869 -0.2453 -3.1872 8.8005 8.1758 7.6455 0.9948 -4.4156 10.3804 3.8876 -8.6009 5.6920 5.8613 -1.8241 -3.3954 -12.9747 9.8143 -4.4850 -1.0155 3.3097 -1.8807 2.2774 0.0000 -0.0000 0.0000 -19.1092 -74.7436 -15.0283 20.9106 -31.7239 -6.0029 -0.0000 0.0000 -33.3838 48.3649 27.8094 27.6914 -7.1250 0.0000 -0.0000 26.1629 66.6660 14.0624 0.0000 -0.0000 0.0000 147.5386 47.9008 127.1099 -23.6428 34.7843 -7.5018 0.0000 -0.0000 -45.8600 -37.6794 4.1277 -3.1818 7.1250 -0.0000 -0.0000 -8.2511 -24.7690 -4.0755
0.00 0.00 0.00 1.8592 5.6984 -7.4864 0.0000 0.0000 0.0000 -20.4380 -17.7600 -12.9890 3.1377 10.9147 31.9926 0.0557 -3.3219 -4.4797 0.2381 -3.1402 -8.6692 0.0000 0.0000 0.0000 21.0254 -19.4358 8.7536 -1.0581 -6.5404 18.3608 -1.8100 -19.0468 -38.0713 -0.0758 -1.7759 4.8868 4.0788 8.0048 2.5389 -4.1470 10.7954 0.2412 -6.6389 5.4564 0.3959 1.0136 7.4781 -9.1833 2.8754 9.8987 -3.7464 0.9943 4.9858 0.2379 -0.0000 0.0000 0.0000 -73.7342 -70.1151 0.2049 51.3040 -53.5081 -27.2190 -0.0000 0.0000 -67.0684 28.7721 22.9507 12.0859 -7.1250 0.0000 -0.0000 -0.3098 55.7648 -0.0818 -0.0000 0.0000 0.0000 143.0581 63.1645 127.2998 -22.9943 34.0826 -7.1351 0.0000 0.0000 11.7080 -31.6055 12.3929 -7.5229 7.1250 -0.0000 -0.0000 -2.9916 -15.5263 -2.0845
0.00 0.00 0.00 8.4845 -38.4560 -15.5217 0.0000 0.0000 0.0000 -18.3818 10.7456 -12.2822 3.3035 11.1708 32.8581 0.0196 10.9161 -15.8294 0.2056 -2.9193 -8.0542 0.0000 0.0000 0.0000 14.6398 5.7570 6.8280 -3.3820 -11.2892 33.2616 -1.9480 -4.6513 -28.3623 -0.2767 3.3835 -9.3483 1.4210 5.7718 3.0897 -1.0610 7.7299 1.0205 -2.1084 3.8721 -0.3381 3.7974 9.3122 -7.0292 -0.1112 12.0626 0.7085 -0.2150 6.0229 1.6363 -0.0000 -0.0000 0.0000 -83.0027 -68.5252 4.1662 43.1602 -49.8346 -20.8231 -0.0000 0.0000 -78.8037 23.8841 24.0041 10.2115 -7.1250 0.0000 -0.0000 -5.9127 55.8493 -1.5779 -0.0000 -0.0000 0.0000 132.6881 65.4720 119.4877 -24.2706 35.4491 -7.8629 0.0000 0.0000 21.2303 -28.1034 7.0131 -3.7306 7.1250 -0.0000 -0.0000 -0.9649 -22.0410 -0.5323
0.00 0.00 0.00 15.3298 -58.2797 -21.9638 0.0000 0.0000 0.0000 -19.1103 18.8786 -12.1869 3.1079 10.8677 31.8348 -0.2275 17.9282 -23.3189 0.0718 1.7283 4.7553 0.0000 0.0000 0.0000 12.9812 17.5587 3.0207 -4.0297 -12.1998 36.4424 -1.5678 1.9331 -23.1361 -0.4072 4.0964 -11.3479 0.9592 0.0355 4.4300 0.9695 0.0452 2.8892 0.4541 0.0120 0.4821 8.9125 13.7242 -5.2003 -8.3037 18.0590 1.1775 -2.9308 8.8649 2.7185 -0.0000 0.0000 0.0000 -104.7933 -75.0102 35.6397 30.7200 -41.5026 -11.8839 -0.0000 0.0000 -76.2928 21.6641 25.7407 9.7879 -7.1250 0.0000 -0.0000 -9.0119 57.1720 -2.7021 -0.0000 0.0000 0.0000 117.5659 65.8949 90.0999 -26.5093 37.7072 -9.1974 0.0000 0.0000 24.0964 -27.7634 6.2149 -3.2617 7.1250 -0.0000 -0.0000 -0.7575 -22.9640 -0.4020
0.00 0.00 0.00 22.2651 -61.7692 -26.8124 0.0000 0.0000 0.0000 -22.5773 21.5339 -14.6292 2.9938 10.6850 31.2247 -0.3882 18.8627 -23.2353 0.0644 1.6379 4.5061 0.0000 0.0000 0.0000 9.0599 19.9754 -0.9458 -4.3996 -12.6739 38.1599 -1.4767 3.2160 -22.1539 -0.6191 5.0353 -14.0092 -1.6600 -4.1900 5.1650 0.1433 -5.7101 3.4730 1.3074 -2.9142 0.8653 10.3445 16.8355 -4.6722 -11.7813 22.2504 -0.8607 -3.7672 10.8910 2.9201 -0.0000 0.0000 0.0000 -124.5054 -75.7107 63.2257 27.0156 -38.1941 -9.5088 -0.0000 0.0000 -75.3335 21.0272 27.7353 10.1428 -7.1250 0.0000 -0.0000 -10.7152 59.0518 -3.7059 -0.0000 0.0000 0.0000 106.8158 63.7292 71.8119 -29.6170 40.5628 -11.1597 0.0000 0.0000 23.3516 -29.7722 4.7707 -2.7239 7.1250 -0.0000 -0.0000 -2.3211 -24.4880 -1.1511
0.00 0.00 0.00 63.5131 -79.6790 -64.3533 0.0000 0.0000 0.0000 -23.2226 31.9001 -19.3926 2.9106 10.5489 30.7732 0.4359 21.0074 -32.5461 0.6193 5.0363 14.0121 0.0000 0.0000 0.0000 8.2286 31.6854 -7.2266 -4.1312 -12.3330 36.9204 -0.5503 14.0218 -15.4104 -0.3501 3.8018 -10.5197 -2.2528 -5.1542 5.6640 1.8086 -7.1033 4.3174 3.3659 -3.6972 1.8050 9.1493 17.7372 -5.8382 -15.2961 23.6140 -1.2185 -4.3091 11.4316 3.4663 -0.0000 0.0000 0.0000 -137.3862 -70.4522 91.8081 24.6739 -35.8688 -8.0981 -0.0000 0.0000 -49.8589 38.7278 29.7678 21.7103 -7.1250 0.0000 -0.0000 10.6371 65.9349 5.4020 -0.0000 0.0000 0.0000 107.1118 49.2273 62.7146 -36.5325 45.8759 -15.9036 0.0000 -0.0000 -7.8316 -36.4034 5.3915 -3.9632 7.1250 -0.0000 -0.0000 -7.1618 -23.3032 -3.7729
0.00 0.00 0.00 47.2887 -75.8309 -47.6130 0.0000 0.0000 0.0000 -24.2720 29.3428 -18.5663 2.5491 9.9266 28.7394 -0.1380 21.4475 -29.2932 0.4585 4.3439 12.0461 0.0000 0.0000 0.0000 7.2453 29.9374 -6.0743 -3.9620 -12.1097 36.1211 -0.8904 10.7216 -17.3475 -0.5294 4.6624 -12.9482 -3.5396 -5.0773 6.1975 1.8635 -7.0576 4.1610 4.1889 -3.6951 1.5128 6.6022 14.5744 -7.9472 -14.1674 19.0996 -2.5724 -4.1109 9.1776 2.5263 -0.0000 0.0000 0.0000 -145.4427 -67.6627 108.7845 20.0555 -30.7092 -5.5597 -0.0000 0.0000 -16.3210 47.7000 26.4884 26.1125 -7.1250 0.0000 -0.0000 24.4395 64.9077 12.1042 -0.0000 0.0000 0.0000 113.0370 45.7793 67.4107 -38.1389 46.9278 -17.0670 0.0000 -0.0000 -35.3003 -34.5381 8.3329 -5.6962 7.1250 -0.0000 -0.0000 -5.4825 -19.9204 -3.3015
0.00 0.00 0.00 30.1346 -69.8639 -29.7705 0.0000 0.0000 0.0000 -23.7680 25.7375 -19.3066 2.4495 9.7456 28.1567 -0.5030 20.3289 -24.5815 0.1855 2.7738 7.6498 0.0000 0.0000 0.0000 7.5278 25.4528 -6.4855 -3.9395 -12.0795 36.0138 -1.0640 7.4686 -18.4314 -0.5641 4.8104 -13.3686 -3.0405 -5.2387 6.9652 3.0927 -7.2851 4.3379 5.2600 -3.8298 1.4019 3.9235 12.1170 -10.4253 -15.6545 15.9634 -2.4726 -4.3131 7.4660 2.5829 0.0000 -0.0000 0.0000 -156.3504 -63.9921 118.1264 13.6034 -22.1649 -2.6767 -0.0000 -0.0000 19.0694 43.9629 21.3923 19.3808 -7.1250 0.0000 -0.0000 17.6031 57.6585 5.5700 0.0000 -0.0000 0.0000 123.3560 44.6280 73.0756 -43.9077 50.2220 -21.3960 0.0000 -0.0000 -54.1654 -34.7070 10.7604 -7.3682 7.1250 -0.0000 -0.0000 -5.3109 -16.9982 -3.5417
0.00 0.00 0.00 8.8675 -31.7377 -10.0567 0.0000 0.0000 0.0000 -22.3438 1.5819 -17.8816 2.5861 9.9927 28.9532 -0.3568 11.4892 -9.1711 0.0121 -0.7096 -1.9500 0.0000 0.0000 0.0000 10.6984 0.5585 -5.2855 -4.1442 -12.3498 36.9810 -1.7309 -5.7627 -27.4871 -0.1433 2.4393 -6.7213 1.1054 -4.6778 8.4104 5.1843 -6.2706 5.4803 5.1863 -3.2622 1.4820 1.8612 5.6625 -13.6817 -12.6324 8.3608 5.0000 -3.5350 3.4301 4.3831 0.0000 0.0000 0.0000 -152.6073 -65.0385 107.6901 10.3892 -17.3461 -1.5890 -0.0000 -0.0000 31.8309 46.4254 24.8663 23.8436 -7.1250 0.0000 -0.0000 21.8456 62.5824 9.5732 0.0000 0.0000 0.0000 124.1321 41.5686 76.7412 -42.7809 49.6338 -20.5336 0.0000 -0.0000 -61.8397 -33.4207 15.8901 -10.2414 7.1250 -0.0000 -0.0000 -3.7720 -11.1787 -2.9758
0.00 0.00 0.00 4.1819 8.1224 -7.0899 0.0000 0.0000 0.0000 -24.3191 -16.0949 -16.6761 2.3005 9.4658 27.2637 -0.0155 -3.6333 4.3906 0.0326 -1.1648 -3.2024 0.0000 0.0000 0.0000 16.8256 -20.9330 -6.2862 -4.0708 -12.2540 36.6364 -2.9479 -15.8594 -40.9089 -0.0660 -1.6572 4.5591 5.1541 -0.4160 7.0242 4.4967 -0.3145 5.6383 1.7788 -0.0735 1.9081 -1.4742 -0.4891 -14.0383 -5.1069 0.0944 5.7439 -1.3312 -0.2845 3.9968 0.0000 -0.0000 0.0000 -143.7908 -71.8730 84.2687 8.8660 -14.9466 -1.1653 -0.0000 -0.0000 41.2512 45.8676 21.0494 20.3155 -7.1250 0.0000 -0.0000 19.9985 57.7705 6.4213 0.0000 -0.0000 0.0000 133.3599 41.2260 86.6550 -35.2163 44.9660 -14.9660 0.0000 -0.0000 -71.0151 -19.7053 -0.9674 0.3465 7.1250 -0.0000 -0.0000 5.4619 -30.9808 1.8787
0.00 0.00 0.00 3.7420 14.0159 -7.0537 0.0000 0.0000 0.0000 -24.4496 -17.7280 -16.6291 2.4172 9.6858 27.9652 -0.1049 -6.5649 5.8036 0.0533 -1.4897 -4.0973 0.0000 0.0000 0.0000 18.6408 -23.3966 -7.0115 -4.2196 -12.4471 37.3324 -3.4180 -16.9962 -43.7652 -0.2165 -2.9957 8.2669 6.6815 3.4193 8.5503 3.8559 5.0028 5.9251 -0.0684 2.6490 1.6166 -1.7405 -2.8013 -13.8772 -2.2671 -3.2285 4.6525 -0.7043 -1.7466 4.0219 0.0000 -0.0000 0.0000 -132.6158 -77.0049 56.4178 7.2812 -12.3812 -0.7908 -0.0000 -0.0000 53.7725 47.2589 25.4791 24.9626 -7.1250 0.0000 -0.0000 23.3419 63.5721 10.8080 0.0000 -0.0000 0.0000 137.2208 39.1725 93.4283 -31.8422 42.4210 -12.6342 0.0000 -0.0000 -73.0861 -16.6767 -10.1187 3.0128 7.1250 -0.0000 -0.0000 9.0934 -40.3684 1.0483
0.00 0.00 0.00 3.2723 17.3151 -6.8345 0.0000 0.0000 0.0000 -24.2265 -19.4296 -16.4600 2.5200 9.8741 28.5700 -0.1726 -7.8766 5.9214 0.0188 -0.8845 -2.4311 0.0000 0.0000 0.0000 19.5673 -26.4166 -7.1144 -3.9815 -12.1357 36.2138 -3.4897 -16.9946 -44.0641 -0.1771 -2.7110 7.4751 8.0830 6.0598 9.0352 3.3528 8.6488 5.9693 -1.5469 4.5317 1.8923 -1.2644 -3.9647 -14.1043 -0.7824 -4.9833 4.4892 -0.4310 -2.5235 4.0269 0.0000 0.0000 0.0000 -121.5483 -79.8618 26.7103 5.6148 -9.6181 -0.4728 -0.0000 -0.0000 68.7415 47.8850 25.5688 25.5200 -7.1250 0.0000 -0.0000 24.3823 63.8742 11.4901 0.0000 0.0000 0.0000 137.6737 36.9517 97.3555 -30.9778 41.7169 -12.0551 0.0000 -0.0000 -72.9648 -17.7278 -9.7744 3.1065 7.1250 -0.0000 -0.0000 8.1207 -40.1023 0.9880
0.00 0.00 0.00 2.7930 27.0115 -6.2031 0.0000 0.0000 0.0000 -25.9612 -26.9167 -13.8699 2.7716 10.3159 30.0058 -0.3593 -10.7627 6.2211 0.0337 -1.1852 -3.2584 0.0000 0.0000 0.0000 22.3169 -28.7165 -4.9577 -3.1977 -11.0084 32.3082 -4.0453 -20.8716 -48.9164 -0.4870 -4.4748 12.4165 6.8449 8.7538 8.2406 0.7815 12.1679 4.1369 -3.6577 6.2339 1.0124 -1.6601 -3.1058 -11.1007 2.0891 -4.0666 4.9450 0.7172 -1.9487 3.6812 0.0000 0.0000 0.0000 -85.7444 -74.1978 9.2320 7.3349 -12.4691 -0.8024 -0.0000 -0.0000 37.0362 45.6357 24.2455 22.7757 -7.1250 0.0000 -0.0000 20.4981 61.5981 8.4782 0.0000 0.0000 0.0000 134.3572 33.2131 106.7691 -28.5604 39.6270 -10.4792 0.0000 -0.0000 -72.2198 -32.1910 5.9287 -3.7203 7.1250 -0.0000 -0.0000 -4.0280 -22.9886 -2.1401
0.00 0.00 0.00 1.7221 21.1933 -6.7682 0.0000 0.0000 0.0000 -23.5955 -25.0429 -14.8860 2.9384 10.5946 30.9245 -0.2881 -9.4652 3.5930 0.0628 -1.6174 -4.4496 0.0000 0.0000 0.0000 22.4095 -25.8402 -2.3606 -2.7330 -10.2497 29.7893 -3.5339 -19.6534 -46.1233 -0.4659 -4.3781 12.1430 4.9441 7.0600 6.5908 -0.4182 9.6910 4.3729 -3.5539 5.0011 1.7704 -2.7929 1.4934 -11.9491 2.7661 2.2074 5.0769 1.5816 1.1661 3.7459 -0.0000 0.0000 0.0000 -82.2257 -63.7141 14.4263 21.0370 -31.8715 -6.0694 -0.0000 0.0000 -21.0111 40.6098 29.4807 22.8775 -7.1250 0.0000 -0.0000 13.5278 66.1829 6.9684 -0.0000 0.0000 0.0000 126.0298 34.2686 101.0659 -27.8129 38.9434 -10.0059 0.0000 -0.0000 -35.4610 -36.0343 -1.5392 1.1194 7.1250 -0.0000 -0.0000 -7.5869 -31.8246 -2.4645
0.00 0.00 0.00 78.3795 -83.0849 -78.4465 0.0000 0.0000 0.0000 -20.5483 29.7266 -21.0627 3.2871 11.1459 32.7735 0.5590 23.7094 -36.5450 0.8458 5.8660 16.3961 0.0000 0.0000 0.0000 11.0029 33.4216 -9.4087 -4.0678 -12.2501 36.6225 -0.2795 13.5786 -12.6452 -0.3994 4.0574 -11.2382 -2.1789 -3.7143 10.0421 -2.3032 -5.3836 6.2954 -0.6793 -2.8323 0.9100 8.0168 17.7037 -6.0977 -15.0132 23.8857 1.3472 -3.9312 11.5015 4.1498 0.0000 0.0000 0.0000 -116.1492 -63.8807 61.4140 24.6343 -35.8278 -8.0748 -0.0000 0.0000 -49.8922 38.7612 30.4626 22.1490 -7.1250 0.0000 -0.0000 10.5731 66.7225 5.5603 0.0000 0.0000 0.0000 107.3996 41.9001 67.0096 -33.7529 43.9008 -13.9414 0.0000 -0.0000 -8.4987 -32.6881 3.9653 -2.5408 7.1250 -0.0000 -0.0000 -4.5542 -25.2700 -2.1808
